<svg width="23" height="21" viewBox="0 0 23 21" fill="none" xmlns="http://www.w3.org/2000/svg">
<path d="M16.5448 1.00002H16.5425C15.7156 0.998072 14.8998 1.18477 14.1591 1.54497L13.7218 0.645662L14.1591 1.54497C13.4184 1.90515 12.7733 2.42878 12.2733 3.07405L11.4828 4.09428L10.6923 3.07402C10.1923 2.42863 9.54706 1.90493 8.80624 1.54475C8.06538 1.18455 7.24952 0.997924 6.42248 1.00002L6.41995 1.00002C3.43533 1.00002 1.0116 3.40498 1.00006 6.33759L16.5448 1.00002ZM16.5448 1.00002C19.5304 1.00002 21.9543 3.40508 21.9662 6.33759C21.978 9.70909 20.3594 11.6808 18.8887 13.4512L18.8878 13.4523L18.5707 13.8351L18.5681 13.8381C17.7745 14.804 16.0685 16.2298 14.4498 17.4841C13.1003 18.5298 11.8857 19.4003 11.4833 19.6861C11.0808 19.4003 9.86621 18.5298 8.51671 17.4841C6.89803 16.2298 5.19201 14.804 4.39837 13.8381L4.39838 13.8381L4.39555 13.8347L4.07815 13.4519L4.07748 13.4511C2.60665 11.6809 0.988314 9.70925 1.00006 6.33794L16.5448 1.00002ZM19.3408 14.473L19.6579 14.0902L19.3408 14.473Z" stroke="#F6F6F6" stroke-width="2"/>
</svg>
