<svg width="20" height="20" viewBox="0 0 20 20" fill="none" xmlns="http://www.w3.org/2000/svg">
<path d="M13.3333 14.1667V15.8333C13.3333 16.2754 13.1577 16.6993 12.8452 17.0118C12.5326 17.3244 12.1087 17.5 11.6667 17.5H4.16667C3.72464 17.5 3.30072 17.3244 2.98816 17.0118C2.67559 16.6993 2.5 16.2754 2.5 15.8333V4.16667C2.5 3.72464 2.67559 3.30072 2.98816 2.98816C3.30072 2.67559 3.72464 2.5 4.16667 2.5H11.6667C12.1087 2.5 12.5326 2.67559 12.8452 2.98816C13.1577 3.30072 13.3333 3.72464 13.3333 4.16667V5.83333H11.6667V4.16667H4.16667V15.8333H11.6667V14.1667H13.3333ZM15.4167 5.41667L14.2383 6.595L16.81 9.16667H8.33333V10.8333H16.81L14.2383 13.405L15.4167 14.5833L20 10L15.4167 5.41667Z" fill="#F6F6F6"/>
</svg>
